HIERARCHY
ROOT Hips
{
 OFFSET 0.000000 0.000000 0.000000
 CHANNELS 6 Xposition Yposition Zposition Yrotation Xrotation Zrotation
 JOINT Chest
 {
  OFFSET 0.000000 9.910571 -0.011835
  CHANNELS 3 Yrotation Xrotation Zrotation
  JOINT Chest2
  {
   OFFSET 0.000000 10.789473 0.021497
   CHANNELS 3 Yrotation Xrotation Zrotation
   JOINT Chest3
   {
    OFFSET 0.000000 9.748205 0.000000
    CHANNELS 3 Yrotation Xrotation Zrotation
    JOINT Chest4
    {
     OFFSET 0.000000 9.748205 0.000000
     CHANNELS 3 Yrotation Xrotation Zrotation
     JOINT Neck
     {
      OFFSET 0.000000 13.998479 0.000000
      CHANNELS 3 Yrotation Xrotation Zrotation
      JOINT Head
      {
       OFFSET 0.000000 9.082285 0.051121
       CHANNELS 3 Yrotation Xrotation Zrotation
       End Site
       {
        OFFSET 0.000000 17.246134 0.026702
       }
      }
     }
     JOINT RightCollar
     {
      OFFSET -3.284495 7.824262 0.000000
      CHANNELS 3 Yrotation Xrotation Zrotation
      JOINT RightShoulder
      {
       OFFSET -15.534540 0.000000 0.000000
       CHANNELS 3 Yrotation Xrotation Zrotation
       JOINT RightElbow
       {
        OFFSET 0.000000 -28.251216 0.000000
        CHANNELS 3 Yrotation Xrotation Zrotation
        JOINT RightWrist
        {
         OFFSET 0.000000 -23.418114 0.012537
         CHANNELS 3 Yrotation Xrotation Zrotation
         End Site
         {
          OFFSET 0.000000 -17.723959 0.000000
         }
        }
       }
      }
     }
     JOINT LeftCollar
     {
      OFFSET 3.284495 7.824262 0.000000
      CHANNELS 3 Yrotation Xrotation Zrotation
      JOINT LeftShoulder
      {
       OFFSET 15.534540 0.000000 0.000000
       CHANNELS 3 Yrotation Xrotation Zrotation
       JOINT LeftElbow
       {
        OFFSET 0.000000 -28.251216 0.000000
        CHANNELS 3 Yrotation Xrotation Zrotation
        JOINT LeftWrist
        {
         OFFSET 0.000000 -23.418114 0.012537
         CHANNELS 3 Yrotation Xrotation Zrotation
         End Site
         {
          OFFSET 0.000000 -17.723959 0.000000
         }
        }
       }
      }
     }
    }
   }
  }
 }
 JOINT RightHip
 {
  OFFSET -8.142657 0.057990 0.005917
  CHANNELS 3 Yrotation Xrotation Zrotation
  JOINT RightKnee
  {
   OFFSET 0.000000 -49.716894 0.008478
   CHANNELS 3 Yrotation Xrotation Zrotation
   JOINT RightAnkle
   {
    OFFSET 0.000000 -43.994153 0.004166
    CHANNELS 3 Yrotation Xrotation Zrotation
    JOINT RightToe
    {
     OFFSET 0.000000 -7.619154 17.822051
     CHANNELS 3 Yrotation Xrotation Zrotation
     End Site
     {
      OFFSET 0.000000 -1.595627 7.159905
     }
    }
   }
  }
 }
 JOINT LeftHip
 {
  OFFSET 8.142657 0.057990 0.005917
  CHANNELS 3 Yrotation Xrotation Zrotation
  JOINT LeftKnee
  {
   OFFSET 0.000000 -49.716894 0.008478
   CHANNELS 3 Yrotation Xrotation Zrotation
   JOINT LeftAnkle
   {
    OFFSET 0.000000 -43.994153 0.004166
    CHANNELS 3 Yrotation Xrotation Zrotation
    JOINT LeftToe
    {
     OFFSET 0.000000 -7.619154 17.822051
     CHANNELS 3 Yrotation Xrotation Zrotation
     End Site
     {
      OFFSET 0.000000 -1.595627 7.159905
     }
    }
   }
  }
 }
}
MOTION
Frames: 9
Frame Time: 0.008333
247.756770 57.453882 255.340481 -51.969058 -53.460655 0.797330 -3.444582 21.940016 -2.735781 -1.412749 9.757932 -1.423108 -1.412749 9.757932 -1.423108 -1.034072 7.321819 -1.041989 -8.884520 17.025166 -2.636239 -15.522033 -4.411081 -1.803213 -0.018284 10.318877 12.233666 29.535636 -22.172368 -22.909433 8.906001 -37.616732 7.067142 27.128618 -8.613171 -20.110961 -0.772692 10.846277 -11.232599 -17.383744 -22.177394 21.496372 0.511538 -53.715232 14.470778 -46.318714 -24.290827 -11.053528 -16.233460 -21.854686 -5.483879 -10.868070 34.238971 -14.605367 5.134936 29.285378 6.326301 -0.644632 1.194093 -0.273544 18.847800 -30.146432 2.789953 91.313284 88.992250 86.977139 -29.542046 -6.507984 -21.467083 -0.134984 -0.164673 -0.060044
247.755407 57.445793 255.338768 -51.966361 -53.461380 0.791268 -3.437755 21.935405 -2.729911 -1.412212 9.756748 -1.422468 -1.412212 9.756748 -1.422468 -1.033684 7.320929 -1.041522 -8.884026 17.030248 -2.637457 -15.520429 -4.401844 -1.806148 -0.015521 10.327930 12.229179 29.532551 -22.176814 -22.898873 8.918640 -37.614410 7.053310 27.124844 -8.610222 -20.112969 -0.768199 10.854900 -11.226484 -17.376287 -22.174408 21.489923 0.475312 -53.723988 14.433804 -46.314078 -24.248592 -11.019556 -16.233513 -21.851787 -5.471584 -10.867706 34.237587 -14.607456 5.098817 29.295934 6.295327 -0.620812 1.188660 -0.261257 18.844682 -30.152684 2.791255 91.668134 88.992600 87.337280 -29.540397 -6.510535 -21.468022 -0.135331 -0.164465 -0.060906
247.751067 57.454912 255.333634 -51.963877 -53.460553 0.762718 -3.426931 21.932855 -2.704590 -1.411346 9.755378 -1.421802 -1.411346 9.755378 -1.421802 -1.033051 7.319898 -1.041042 -8.880957 17.034837 -2.638781 -15.514055 -4.393701 -1.810097 -0.015432 10.334921 12.224164 29.526329 -22.177931 -22.890058 8.929857 -37.621060 7.042875 27.114293 -8.604108 -20.107570 -0.768503 10.859536 -11.224714 -17.367982 -22.171503 21.486100 0.503581 -53.680740 14.391347 -46.340772 -24.268440 -10.972495 -16.244906 -21.843729 -5.442393 -10.862379 34.234149 -14.603384 5.108331 29.268205 6.306814 -0.641376 1.218604 -0.269571 18.833925 -30.161012 2.822675 91.662944 88.996767 87.340509 -29.541150 -6.511342 -21.470070 -0.136860 -0.165605 -0.060776
247.748624 57.464723 255.331986 -51.961907 -53.459411 0.749883 -3.421869 21.928879 -2.693722 -1.410461 9.753422 -1.421786 -1.410461 9.753422 -1.421786 -1.032394 7.318429 -1.041049 -8.881622 17.040235 -2.639700 -15.514683 -4.383773 -1.812118 -0.010418 10.347413 12.223998 29.509238 -22.181826 -22.885537 8.949482 -37.626886 7.040154 27.116403 -8.599343 -20.112615 -0.767431 10.870003 -11.222801 -17.363000 -22.171116 21.480326 0.469273 -53.683465 14.371428 -46.345113 -24.236846 -10.952637 -16.251713 -21.842687 -5.438726 -10.857698 34.235793 -14.593384 5.151930 29.247011 6.341526 -0.673015 1.238006 -0.285825 18.830111 -30.161796 2.837385 91.466353 89.000031 87.147514 -29.543736 -6.508989 -21.469967 -0.136434 -0.168553 -0.060218
247.744369 57.470199 255.322087 -51.998844 -53.425698 0.718286 -3.368729 21.894201 -2.627063 -1.411333 9.752602 -1.421528 -1.411333 9.752602 -1.421528 -1.033054 7.317815 -1.040845 -8.880013 17.046344 -2.639922 -15.511312 -4.372604 -1.813699 -0.008663 10.353481 12.223248 29.508015 -22.176666 -22.880224 8.944797 -37.634845 7.038420 27.123896 -8.594415 -20.109784 -0.764909 10.878443 -11.221196 -17.360726 -22.174906 21.478218 0.496311 -53.633097 14.327883 -46.378629 -24.259329 -10.894314 -16.253217 -21.854961 -5.367690 -10.854778 34.232634 -14.585727 5.185846 29.215898 6.371423 -0.716380 1.267236 -0.302073 18.829427 -30.215471 2.901915 91.909322 89.014289 87.594869 -29.540741 -6.515702 -21.468805 -0.137547 -0.165743 -0.059042
247.741601 57.481024 255.319582 -51.983165 -53.431918 0.694492 -3.363916 21.895542 -2.607759 -1.410657 9.751831 -1.420239 -1.410657 9.751831 -1.420239 -1.032570 7.317232 -1.039894 -8.883533 17.052658 -2.641523 -15.516938 -4.360864 -1.816103 -0.015130 10.363905 12.214860 29.511568 -22.180201 -22.873977 8.947627 -37.632307 7.032239 27.131531 -8.596232 -20.106845 -0.771433 10.891407 -11.224266 -17.368359 -22.175174 21.473138 0.462674 -53.632406 14.314060 -46.381637 -24.230151 -10.862572 -16.261597 -21.842244 -5.352417 -10.857429 34.232170 -14.584749 5.153580 29.196425 6.342494 -0.701746 1.286546 -0.293508 18.815638 -30.208384 2.920520 91.615059 89.019476 87.303145 -29.539016 -6.515924 -21.470047 -0.139459 -0.164719 -0.058689
247.739396 57.489259 255.316534 -51.983071 -53.428449 0.683468 -3.356010 21.891626 -2.595307 -1.410083 9.751336 -1.420887 -1.410083 9.751336 -1.420887 -1.032132 7.316861 -1.040389 -8.882040 17.057283 -2.641965 -15.513782 -4.352455 -1.817897 -0.014521 10.369764 12.215452 29.511837 -22.183199 -22.868370 8.944222 -37.629730 7.031791 27.133382 -8.589173 -20.115289 -0.768942 10.892781 -11.221652 -17.365007 -22.171879 21.472222 0.488733 -53.586702 14.270922 -46.412650 -24.252889 -10.810339 -16.264795 -21.839750 -5.340725 -10.866421 34.226098 -14.584977 5.159371 29.184716 6.338910 -0.708011 1.299479 -0.296254 18.811383 -30.211870 2.932291 91.458056 89.014091 87.151217 -29.541116 -6.520876 -21.474224 -0.140241 -0.162598 -0.059085
247.738583 57.497241 255.316248 -51.986744 -53.424059 0.682040 -3.353949 21.889168 -2.594713 -1.410426 9.751847 -1.420891 -1.410426 9.751847 -1.420891 -1.032387 7.317245 -1.040385 -8.875022 17.061548 -2.641146 -15.500868 -4.344946 -1.819199 -0.016074 10.371834 12.211848 29.502937 -22.187326 -22.860162 8.953732 -37.634572 7.034021 27.138866 -8.586481 -20.111686 -0.760274 10.889588 -11.219011 -17.364928 -22.171997 21.473469 0.461416 -53.583859 14.238364 -46.413086 -24.212962 -10.776198 -16.269711 -21.843759 -5.338039 -10.863669 34.224041 -14.586131 5.191771 29.182436 6.365768 -0.731667 1.300799 -0.308143 18.814019 -30.214600 2.937288 91.371975 89.016458 87.065504 -29.539403 -6.519244 -21.470634 -0.142172 -0.164709 -0.061133
247.737736 57.505007 255.316083 -51.991208 -53.423150 0.683122 -3.352087 21.890268 -2.592787 -1.409469 9.752146 -1.421489 -1.409469 9.752146 -1.421489 -1.031660 7.317469 -1.040847 -8.872780 17.067525 -2.638314 -15.497395 -4.333739 -1.815353 -0.012791 10.366382 12.209777 29.497255 -22.179772 -22.853554 8.949863 -37.647635 7.031552 27.142203 -8.581300 -20.114456 -0.760935 10.883518 -11.214057 -17.359942 -22.167265 21.463425 0.491737 -53.545678 14.203072 -46.448331 -24.237662 -10.734413 -16.270165 -21.845344 -5.334199 -10.864125 34.225977 -14.587780 5.190387 29.175796 6.363744 -0.732185 1.305911 -0.309602 18.812538 -30.211962 2.947428 91.146600 89.018504 86.832407 -29.541261 -6.513843 -21.468023 -0.143057 -0.167486 -0.060039
